<svg xmlns="http://www.w3.org/2000/svg" xml:space="preserve" id="Layer_1" width="800" height="800" fill="#d600c4" stroke="#d600c4" viewBox="0 0 512 512"><g id="SVGRepo_iconCarrier"><path d="M348.479 395.31H163.521l-9.214 46.069h36.864a62 62 0 0 0 1.772 11.943c5.898 23.533 24.824 42.294 56.251 55.763L256 512l6.805-2.916c31.427-13.468 50.353-32.23 56.251-55.763a62 62 0 0 0 1.772-11.943h36.864zm-206.226-22.84-4.117-11.426c-2.203-6.119-14.204-40.084-24.068-80.469l-25.066 20.052v109.686l53.932-35.954zm255.68-91.895c-9.864 40.386-21.866 74.352-24.071 80.476l-4.115 11.419-.681 1.889 53.932 35.954V300.627zM256 176.484c-9.526 0-17.276 7.75-17.276 17.276s7.75 17.276 17.276 17.276 17.276-7.75 17.276-17.276-7.75-17.276-17.276-17.276z"/><path d="M265.824 6.793 256 0l-9.824 6.792C241.639 9.928 135.07 84.795 135.07 188.213c0 61.675 34.122 157.091 35.574 161.124l4.115 11.42h162.483l4.115-11.42c1.451-4.031 35.573-99.447 35.573-161.122 0-103.42-106.569-178.286-111.106-181.422zM256 245.587c-28.577 0-51.827-23.25-51.827-51.827 0-28.578 23.25-51.827 51.827-51.827s51.827 23.25 51.827 51.827-23.25 51.827-51.827 51.827z"/></g></svg>
